<svg width="1024" height="1024" viewBox="0 0 1024 1024" xmlns="http://www.w3.org/2000/svg">
  <defs>
    <style>
      .logo-base { fill: oklch(55% 0.220 271); }
      .logo-shadow { fill: oklch(97% 0.010 271); fill-opacity: 0.4; }
      @media (prefers-color-scheme: dark) {
        .logo-base { fill: oklch(65% 0.220 271); }
        .logo-shadow { fill: oklch(12% 0.010 271); fill-opacity: 0.4; }
      }
    </style>
    <path id="outer-shape" d="M224.5 681.5 L224.5 291.5 C224.5 236.5 231.5 199.5 254.5 192.5 C289.5 181.8 372.5 236.5 413.5 306.5 C443.5 302.5 477.5 300.5 512 300.5 C546.5 300.5 580.5 302.5 610.5 306.5 C651.5 236.5 734.5 181.8 769.5 192.5 C792.5 199.5 799.5 236.5 799.5 291.5 L799.5 681.5 C799.5 724.5 772.5 750.5 729.5 750.5 L294.5 750.5 C251.5 750.5 224.5 724.5 224.5 681.5 Z"/>
    <clipPath id="clip">
      <use href="#outer-shape"/>
    </clipPath>
  </defs>
  <use href="#outer-shape" class="logo-base"/>
  <path class="logo-shadow" clip-path="url(#clip)" d="M468.5 300.5 C488.5 299.5 516.5 299.5 536.5 300.5 C537.5 354.5 537.5 409.5 545.5 459.5 C557.5 535.5 598.5 576.5 653.5 607.5 C704.5 636.5 741.5 661.5 766.5 688.5 C780.5 704.5 782.5 728.5 761.5 750.5 L280.5 750.5 C284.5 717.5 303.5 681.5 344.5 644.5 C395.5 598.5 438.5 562.5 453.5 501.5 C467.5 445.5 466.5 372.5 468.5 300.5 Z"/>
  <circle class="logo-base" cx="607.5" cy="636.5" r="31.5"/>
</svg>
